<?xml version="1.0" encoding="UTF-8"?>
<svg width="51px" height="35px" viewBox="0 0 51 35" version="1.1" xmlns="http://www.w3.org/2000/svg" xmlns:xlink="http://www.w3.org/1999/xlink">
    <title>camer</title>
    <defs>
        <linearGradient x1="50%" y1="0%" x2="50%" y2="100%" id="linearGradient-1">
            <stop stop-color="#FAFAFC" offset="0%"></stop>
            <stop stop-color="#E5E7F4" offset="100%"></stop>
        </linearGradient>
        <rect id="path-2" x="0" y="0" width="100" height="921"></rect>
        <filter x="-12.0%" y="-1.3%" width="124.0%" height="102.6%" filterUnits="objectBoundingBox" id="filter-3">
            <feOffset dx="0" dy="0" in="SourceAlpha" result="shadowOffsetOuter1"></feOffset>
            <feGaussianBlur stdDeviation="4" in="shadowOffsetOuter1" result="shadowBlurOuter1"></feGaussianBlur>
            <feColorMatrix values="0 0 0 0 0.470588235   0 0 0 0 0.51372549   0 0 0 0 0.517647059  0 0 0 0.123358243 0" type="matrix" in="shadowBlurOuter1"></feColorMatrix>
        </filter>
        <polygon id="path-4" points="0.654292683 0.613241379 29.3735122 0.613241379 29.3735122 22.9827724 0.654292683 22.9827724"></polygon>
        <polygon id="path-6" points="0.266848052 0.155544828 7.97941556 0.155544828 7.97941556 8.68965517 0.266848052 8.68965517"></polygon>
    </defs>
    <g id="administrator" stroke="none" stroke-width="1" fill="none" fill-rule="evenodd">
        <g id="dash1-dop-menu" transform="translate(-25.000000, -26.000000)">
            <rect id="Rectangle" fill="url(#linearGradient-1)" x="0" y="0" width="1200" height="1263"></rect>
            <g id="menu-close">
                <g id="Rectangle">
                    <use fill="black" fill-opacity="1" filter="url(#filter-3)" xlink:href="#path-2"></use>
                    <use fill="#FFFFFF" fill-rule="evenodd" xlink:href="#path-2"></use>
                </g>
                <g id="Group-17" transform="translate(25.000000, 25.000000)">
                    <g id="Group-3" transform="translate(7.463415, 0.628510)">
                        <mask id="mask-5" fill="white">
                            <use xlink:href="#path-4"></use>
                        </mask>
                        <g id="Clip-2"></g>
                        <path d="M6.06402439,0.613117241 L23.9650244,0.613117241 C26.9391951,0.613117241 29.3735122,3.04249655 29.3735122,6.01187586 L29.3735122,17.5840138 C29.3735122,20.5521517 26.9391951,22.9827724 23.9650244,22.9827724 L6.06402439,22.9827724 C3.08860976,22.9827724 0.654292683,20.5521517 0.654292683,17.5840138 L0.654292683,6.01187586 C0.654292683,3.04249655 3.08860976,0.613117241 6.06402439,0.613117241" id="Fill-1" fill="#C8BFD4" mask="url(#mask-5)"></path>
                    </g>
                    <g id="Group-6" transform="translate(16.170732, 26.697476)">
                        <mask id="mask-7" fill="white">
                            <use xlink:href="#path-6"></use>
                        </mask>
                        <g id="Clip-5"></g>
                        <path d="M0.893992683,8.68754483 C0.286968293,8.7372 0.0232609756,7.91168276 0.548187805,7.60009655 C1.19004146,7.2189931 1.81696829,6.66533793 2.23243171,5.86464828 C3.11435854,4.16023448 3.01857805,1.89471724 2.90289512,0.801062069 C2.86682195,0.452234483 3.14296829,0.155544828 3.49374878,0.155544828 L7.38716341,0.155544828 C7.72301707,0.155544828 7.98672439,0.432372414 7.97926098,0.768786207 C7.95687073,1.89347586 8.07255366,3.99761379 5.42304146,6.45802759 C3.86691951,7.9029931 2.18143171,8.58451034 0.893992683,8.68754483" id="Fill-4" fill="#66538A" mask="url(#mask-7)"></path>
                    </g>
                    <path d="M37.5101268,30.2315586 L19.6091268,30.2315586 C16.6349561,30.2315586 14.200639,27.8021793 14.200639,24.8328 L14.200639,13.2606621 C14.200639,10.2912828 16.6349561,7.86190345 19.6091268,7.86190345 L37.5101268,7.86190345 C40.4855415,7.86190345 42.9198585,10.2912828 42.9198585,13.2606621 L42.9198585,24.8328 C42.9198585,27.8021793 40.4855415,30.2315586 37.5101268,30.2315586" id="Fill-7" fill="#66538A"></path>
                    <path d="M32.8503439,19.0471034 C32.8503439,21.411931 30.9297585,23.3286207 28.5601244,23.3286207 C26.1904902,23.3286207 24.2699049,21.411931 24.2699049,19.0471034 C24.2699049,16.6822759 26.1904902,14.7655862 28.5601244,14.7655862 C30.9297585,14.7655862 32.8503439,16.6822759 32.8503439,19.0471034" id="Fill-9" fill="#C8BFD4"></path>
                    <path d="M50.8845659,19.0471034 L50.8845659,23.912069 C50.8845659,24.9275172 49.7376878,25.5184138 48.9080049,24.9312414 L45.7472488,22.6893103 L42.0453951,20.0650345 C41.3425902,19.5672414 41.3425902,18.5269655 42.0453951,18.0291724 L45.7472488,15.4048966 L48.9080049,13.1629655 C49.7376878,12.5757931 50.8845659,13.1666897 50.8845659,14.1821379 L50.8845659,19.0471034 Z" id="Fill-11" fill="#C8BFD4"></path>
                    <path d="M28.5598756,12.2401241 C24.7995585,12.2401241 21.7395585,15.2939172 21.7395585,19.0466069 C21.7395585,22.8005379 24.7995585,25.8530897 28.5598756,25.8530897 C32.3201927,25.8530897 35.3801927,22.8005379 35.3801927,19.0466069 C35.3801927,15.2939172 32.3201927,12.2401241 28.5598756,12.2401241 M28.5598756,27.094469 C24.1129244,27.094469 20.4956561,23.4845379 20.4956561,19.0466069 C20.4956561,14.6086759 24.1129244,10.9987448 28.5598756,10.9987448 C33.0068268,10.9987448 36.6240951,14.6086759 36.6240951,19.0466069 C36.6240951,23.4845379 33.0068268,27.094469 28.5598756,27.094469" id="Fill-13" fill="#C8BFD4"></path>
                    <path d="M0,12.9298345 L0,8.06486897 C0,7.05066207 1.14812195,6.45852414 1.97656098,7.04569655 L5.13856098,9.28762759 L8.83917073,11.9119034 C9.54197561,12.4096966 9.54197561,13.4499724 8.83917073,13.9477655 L5.13856098,16.5732828 L1.97656098,18.8139724 C1.14812195,19.4011448 0,18.8102483 0,17.7960414 L0,12.9298345 Z" id="Fill-15" fill="#66538A"></path>
                </g>
            </g>
        </g>
    </g>
</svg>
