<svg xmlns="http://www.w3.org/2000/svg" width="52" height="52" viewBox="0 0 52 52"><g><g><path fill="#fff" d="M26 52c14.36 0 26-11.64 26-26S40.36 0 26 0 0 11.64 0 26s11.64 26 26 26z"/></g><g><g><g><path fill="#4fd161" d="M38.983 13.346l-5.688-1.313a1.321 1.321 0 0 0-1.503.76l-2.625 6.125a1.31 1.31 0 0 0 .377 1.532l3.314 2.712a20.267 20.267 0 0 1-9.69 9.69l-2.713-3.313a1.311 1.311 0 0 0-1.531-.378l-6.125 2.625a1.328 1.328 0 0 0-.766 1.51l1.313 5.687c.137.59.662 1.017 1.28 1.017C28.63 40 40 28.653 40 14.626a1.31 1.31 0 0 0-1.017-1.28z"/></g></g></g></g></svg>