<svg xmlns="http://www.w3.org/2000/svg" width="51" height="36" viewBox="0 0 51 36"><defs><clipPath id="2py9a"><path d="M8.123.241h28.719v22.37H8.122z"/></clipPath><clipPath id="2py9b"><path d="M16.432 25.851h7.713v8.534h-7.713z"/></clipPath></defs><g><g><g><g><g/><g clip-path="url(#2py9a)"><path fill="#c8bfd4" d="M13.532.241h17.901c2.975 0 5.409 2.43 5.409 5.4v11.571c0 2.968-2.434 5.399-5.409 5.399h-17.9c-2.976 0-5.41-2.43-5.41-5.399V5.64c0-2.97 2.434-5.399 5.41-5.399"/></g></g><g><g/><g clip-path="url(#2py9b)"><path fill="#66538a" d="M17.06 34.383c-.608.05-.872-.776-.347-1.087.642-.382 1.27-.935 1.685-1.736.881-1.704.786-3.97.67-5.063a.588.588 0 0 1 .59-.646h3.894c.336 0 .6.277.592.613-.022 1.125.094 3.23-2.556 5.69-1.556 1.444-3.241 2.126-4.529 2.229"/></g></g><g><path fill="#66538a" d="M37.515 29.228H19.614c-2.974 0-5.409-2.43-5.409-5.4V12.258c0-2.97 2.435-5.4 5.409-5.4h17.9c2.976 0 5.41 2.43 5.41 5.4v11.572c0 2.97-2.434 5.399-5.41 5.399"/></g><g><path fill="#c8bfd4" d="M32.849 18.042a4.286 4.286 0 0 1-4.29 4.281 4.286 4.286 0 0 1-4.29-4.281 4.286 4.286 0 0 1 4.29-4.282c2.37 0 4.29 1.917 4.29 4.282"/></g><g><path fill="#c8bfd4" d="M50.888 18.052v4.865c0 1.016-1.147 1.606-1.977 1.02l-3.16-2.243-3.702-2.624a1.246 1.246 0 0 1 0-2.036l3.701-2.624 3.161-2.242c.83-.587 1.977.004 1.977 1.02z"/></g><g><path fill="#c8bfd4" d="M28.564 26.094c-4.447 0-8.064-3.61-8.064-8.048C20.5 13.61 24.117 10 28.564 10s8.064 3.61 8.064 8.047c0 4.438-3.617 8.048-8.064 8.048m0-14.854c-3.76 0-6.82 3.054-6.82 6.806 0 3.754 3.06 6.807 6.82 6.807 3.76 0 6.82-3.053 6.82-6.807 0-3.752-3.06-6.806-6.82-6.806"/></g><g><path fill="#66538a" d="M0 11.932V7.067c0-1.014 1.148-1.606 1.977-1.02L5.139 8.29l3.7 2.624a1.246 1.246 0 0 1 0 2.036l-3.7 2.625-3.162 2.241C1.148 18.403 0 17.812 0 16.798z"/></g></g></g></g></svg>