<svg xmlns="http://www.w3.org/2000/svg" width="21" height="26" viewBox="0 0 21 26"><defs><clipPath id="xqhsa"><path d="M0 0h20.967v23.384H0z"/></clipPath></defs><g><g><g><g><path fill="#4c3b60" d="M11.209 18.161l-7.94-7.865c0 5.77 4.278 8.268 7.94 7.865"/></g><g><path fill="#4c3b60" d="M13.325 20.26a7.78 7.78 0 0 1-2.848.534 7.889 7.889 0 0 1-6.47-3.367 1.323 1.323 0 0 0-1.834-.315 1.295 1.295 0 0 0-.332 1.797 10.534 10.534 0 0 0 7.337 4.407c0 .026-.013.052-.013.078v1.3c0 .717.588 1.3 1.312 1.3.726 0 1.313-.583 1.313-1.3v-1.3c0-.026-.013-.052-.013-.078a10.647 10.647 0 0 0 3.53-1.092z"/></g><g><g/><g clip-path="url(#xqhsa)"><path fill="#4c3b60" d="M20.599 21.18l-1.837-1.82c.166-.21.338-.414.49-.641a1.293 1.293 0 0 0-.405-1.794 1.32 1.32 0 0 0-1.788.364c-.051.078-.114.144-.168.22l-1.367-1.355a7.07 7.07 0 0 0 2.178-5.104v-3.9c.012-3.936-3.2-7.138-7.175-7.15-2.974-.01-5.65 1.795-6.728 4.54L2.224 2.98a1.323 1.323 0 0 0-1.856.032 1.293 1.293 0 0 0 0 1.807l18.375 18.2c.521.5 1.352.485 1.856-.031.49-.504.49-1.303 0-1.807"/></g></g></g></g></g></svg>