<svg width="9" height="18" viewBox="0 0 9 18" xmlns="http://www.w3.org/2000/svg">
<path d="M8.99696 9.01412C8.99755 9.314 8.89297 9.60463 8.7014 9.83554L2.27615 17.5363C2.05803 17.7984 1.74459 17.9633 1.40479 17.9946C1.06498 18.0259 0.726655 17.921 0.464227 17.7032C0.201798 17.4853 0.0367669 17.1723 0.00543773 16.8329C-0.0258914 16.4935 0.0790476 16.1556 0.29717 15.8935L6.0542 9.01412L0.502779 2.13473C0.396035 2.00344 0.316321 1.85238 0.26822 1.69023C0.220118 1.52808 0.204577 1.35803 0.22249 1.18986C0.240402 1.02169 0.291415 0.858713 0.372596 0.710297C0.453778 0.561882 0.563527 0.430954 0.695536 0.325037C0.827667 0.207499 0.982678 0.118479 1.15086 0.0635548C1.31904 0.00863268 1.49676 -0.0110092 1.67289 0.00585939C1.84903 0.022728 2.01977 0.0757427 2.17444 0.161587C2.3291 0.247429 2.46435 0.364248 2.57171 0.504725L8.7785 8.20553C8.9398 8.44308 9.01671 8.72777 8.99696 9.01412Z" fill="#AEADCA"/>
</svg>
