<svg xmlns="http://www.w3.org/2000/svg" width="30" height="22" viewBox="0 0 30 22"><defs><clipPath id="lx8ga"><path d="M0 3.762h16.21v15.536H0z"/></clipPath><clipPath id="lx8gb"><path d="M.783.294h28.153V20.62H.783z"/></clipPath></defs><g><g><g><g><g/><g clip-path="url(#lx8ga)"><path fill="#4c3b60" d="M0 5.601v9.886c.007 2.102 1.723 3.805 3.843 3.811H16.21L.5 3.762a3.762 3.762 0 0 0-.5 1.84"/></g></g><g><g/><g clip-path="url(#lx8gb)"><path fill="#4c3b60" d="M26.17 4.205l-4.553 2.828V5.598c-.009-2.103-1.726-3.805-3.845-3.809H3.962L2.796.635a1.188 1.188 0 0 0-1.668.003c-.46.458-.459 1.2.003 1.655l18.185 17.985c.23.228.53.342.833.342.303 0 .606-.115.835-.344.46-.458.46-1.2-.002-1.655l-.476-.471a3.786 3.786 0 0 0 1.112-2.664v-1.435l4.556 2.825c1.518.941 2.763.258 2.763-1.52V5.724c-.003-1.782-1.247-2.46-2.765-1.518"/></g></g></g></g></g></svg>