<?xml version="1.0" encoding="UTF-8"?>
<svg width="18px" height="8px" viewBox="0 0 18 8" version="1.1" xmlns="http://www.w3.org/2000/svg" xmlns:xlink="http://www.w3.org/1999/xlink">
    <title>phone-solid</title>
    <g id="operator" stroke="none" stroke-width="1" fill="none" fill-rule="evenodd">
        <g id="call-end" transform="translate(-981.000000, -124.000000)" fill="#FFFFFF">
            <g id="Group-6" transform="translate(919.000000, 0.000000)">
                <g id="Group" transform="translate(64.692388, 122.692388)">
                    <g id="Path" transform="translate(6.500000, 6.500000) rotate(45.000000) translate(-6.500000, -6.500000) ">
                        <path d="M12.527744,0.624870748 L9.8871727,0.0155086177 C9.60026447,-0.050505613 9.30573922,0.0992959106 9.18894472,0.368430851 L7.97021951,3.21212079 C7.86358105,3.46094366 7.93467336,3.75292968 8.14541126,3.92304327 L9.68405183,5.18239168 C8.77000793,7.12981148 7.1729701,8.74969914 5.18492461,9.6815154 L3.92557523,8.14287602 C3.75292249,7.93213829 3.46347525,7.86104604 3.21465219,7.96768441 L0.370960042,9.18640867 C0.0992858813,9.30574209 -0.0505157588,9.60026712 0.0154985233,9.88717512 L0.624861127,12.5277443 C0.688336398,12.8019573 0.932081439,13 1.21898967,13 C7.72139645,13 13,7.73155659 13,1.21899882 C13,0.93462983 12.8044962,0.688345969 12.527744,0.624870748 Z" transform="translate(6.500000, 6.500000) scale(-1, -1) translate(-6.500000, -6.500000) "></path>
                    </g>
                </g>
            </g>
        </g>
    </g>
</svg>