<svg width="28px" height="28px" viewBox="0 0 28 28" version="1.1" xmlns="http://www.w3.org/2000/svg" xmlns:xlink="http://www.w3.org/1999/xlink" fill="white">
<path d="M26.9828332,1.34587546 L21.2954489,0.0334031766 C20.6774927,-0.10878132 20.0431306,0.213868115 19.7915732,0.793543372 L17.1666266,6.91841401 C16.9369438,7.45434019 17.0900657,8.08323316 17.5439627,8.44963167 L20.8579578,11.1620744 C18.8892478,15.356517 15.4494741,18.8455059 11.1675299,20.8524947 L8.45508511,17.5385022 C8.08321767,17.0846055 7.45979286,16.9314838 6.92386626,17.1611664 L0.79899086,19.786111 C0.213846513,20.0431368 -0.108803173,20.6774984 0.0333814347,21.2954541 L1.34585473,26.982834 C1.4825707,27.5734465 2.00756002,28 2.6255162,28 C16.6307,28 28,16.6525834 28,2.62553593 C28,2.01304886 27.5789148,1.48259132 26.9828332,1.34587546 Z" transform="translate(14.000000, 14.000000) scale(-1, -1) translate(-14.000000, -14.000000) "></path>
</svg>
