<?xml version="1.0" encoding="UTF-8"?>
<svg width="45px" height="45px" viewBox="0 0 45 45" version="1.1" xmlns="http://www.w3.org/2000/svg" xmlns:xlink="http://www.w3.org/1999/xlink">
    <g id="phone-solid" stroke="none" stroke-width="1" fill="none" fill-rule="evenodd">
        <g fill="#4FD161" id="Path">
            <path d="M43.3652676,2.16301413 L34.2248286,0.0536836767 C33.2316847,-0.174827122 32.2121742,0.343716613 31.8078856,1.27533756 L27.5892214,11.1188797 C27.2200883,11.9801896 27.466177,12.9909104 28.1956544,13.5797652 L33.5217179,17.9390481 C30.3577197,24.6801167 24.8295119,30.2874201 17.947816,33.5129379 L13.5885296,28.1868785 C12.9908855,27.4574018 11.9889528,27.2113132 11.1276422,27.580446 L1.28409245,31.7991069 C0.343681897,32.2121842 -0.174862242,33.2316939 0.0536487344,34.224837 L2.16298082,43.3652689 C2.38270292,44.3144676 3.22643575,45 4.21957961,45 C26.7279108,45 45,26.7630805 45,4.21961131 C45,3.2352571 44.323256,2.38273605 43.3652676,2.16301413 Z"></path>
        </g>
    </g>
</svg>
