<svg width="14" height="20" viewBox="0 0 14 20" fill="none" xmlns="http://www.w3.org/2000/svg">
<path fill-rule="evenodd" clip-rule="evenodd" d="M6.75659 14C9.79259 13.996 12.2536 11.536 12.2566 8.5V5.5C12.2566 2.462 9.79459 0 6.75659 0C3.71959 0 1.25659 2.462 1.25659 5.5V8.5C1.26059 11.536 3.72159 13.996 6.75659 14Z" fill="#4C3B60"/>
<mask id="mask0" mask-type="alpha" maskUnits="userSpaceOnUse" x="0" y="12" width="14" height="8">
<path fill-rule="evenodd" clip-rule="evenodd" d="M0 12.8486H13.605V19.9999H0V12.8486Z" fill="white"/>
</mask>
<g mask="url(#mask0)">
<path fill-rule="evenodd" clip-rule="evenodd" d="M11.7693 13.2979C9.94527 16.0669 6.22227 16.8319 3.45427 15.0069C2.81327 14.5849 2.25927 14.0439 1.82227 13.4129C1.50727 12.9589 0.884272 12.8459 0.430272 13.1599C-0.0237281 13.4749 -0.135728 14.0979 0.177272 14.5519C1.47527 16.4249 3.50827 17.6559 5.76927 17.9379C5.76827 17.9599 5.75627 17.9779 5.75627 17.9999V18.9999C5.75627 19.5519 6.20527 19.9999 6.75627 19.9999C7.30927 19.9999 7.75627 19.5519 7.75627 18.9999V17.9999C7.75627 17.9779 7.74627 17.9599 7.74527 17.9389C10.0703 17.6519 12.1533 16.3579 13.4393 14.3999C13.7443 13.9389 13.6173 13.3179 13.1553 13.0139C12.6943 12.7099 12.0743 12.8369 11.7693 13.2979Z" fill="#4C3B60"/>
</g>
</svg>
