<svg xmlns="http://www.w3.org/2000/svg" width="31" height="31" viewBox="0 0 31 31"><defs><clipPath id="o06ia"><path d="M15.5 31C24.06 31 31 24.06 31 15.5 31 6.94 24.06 0 15.5 0 6.94 0 0 6.94 0 15.5 0 24.06 6.94 31 15.5 31z"/></clipPath></defs><g><g><g><path fill="#c8bfd4" d="M15.5 31C24.06 31 31 24.06 31 15.5 31 6.94 24.06 0 15.5 0 6.94 0 0 6.94 0 15.5 0 24.06 6.94 31 15.5 31z"/></g><g clip-path="url(#o06ia)"><g><g><path fill="#ab9db7" d="M26 26.8v1.95A2.25 2.25 0 0 1 23.75 31H7.25A2.25 2.25 0 0 1 5 28.75V26.8c0-3.478 2.822-6.3 6.3-6.3h.783a8.169 8.169 0 0 0 6.834 0h.783c3.478 0 6.3 2.822 6.3 6.3zM9.5 13a6 6 0 1 1 12 0 6 6 0 1 1-12 0z"/></g></g></g></g></g></svg>